<svg width="51" height="51" viewBox="0 0 51 51" fill="none" xmlns="http://www.w3.org/2000/svg">
<path d="M7.4375 39.3125C7.4375 31.1277 7.4375 11.6875 7.4375 11.6875C7.4375 8.16668 10.2917 5.3125 13.8125 5.3125H37.1875V32.9375C37.1875 32.9375 19.3721 32.9375 13.8125 32.9375C10.3063 32.9375 7.4375 35.7895 7.4375 39.3125Z" fill="#FF7A30" stroke="#FF7A30" stroke-width="1.33333" stroke-linejoin="round"/>
<path d="M37.1875 32.9375C37.1875 32.9375 15.0383 32.9375 13.8125 32.9375C10.2917 32.9375 7.4375 35.7917 7.4375 39.3125C7.4375 42.8333 10.2917 45.6875 13.8125 45.6875C16.1597 45.6875 27.493 45.6875 43.5625 45.6875V7.4375" stroke="#FF7A30" stroke-width="1.33333" stroke-linecap="round" stroke-linejoin="round"/>
<path d="M14.875 39.3125H36.125" stroke="#FF7A30" stroke-width="1.33333" stroke-linecap="round" stroke-linejoin="round"/>
</svg>
