<svg width="16" height="16" viewBox="0 0 16 16" fill="none" xmlns="http://www.w3.org/2000/svg">
<path d="M2.33337 12.3333C2.33337 9.76557 2.33337 3.66667 2.33337 3.66667C2.33337 2.5621 3.2288 1.66667 4.33337 1.66667H11.6667V10.3333C11.6667 10.3333 6.07757 10.3333 4.33337 10.3333C3.23337 10.3333 2.33337 11.2281 2.33337 12.3333Z" fill="#ADCFA7" stroke="#ADCFA7" stroke-width="1.33333" stroke-linejoin="round"/>
<path d="M11.6667 10.3333C11.6667 10.3333 4.71794 10.3333 4.33337 10.3333C3.2288 10.3333 2.33337 11.2288 2.33337 12.3333C2.33337 13.4379 3.2288 14.3333 4.33337 14.3333C5.06974 14.3333 8.62531 14.3333 13.6667 14.3333V2.33333" stroke="#ADCFA7" stroke-width="1.33333" stroke-linecap="round" stroke-linejoin="round"/>
<path d="M4.66663 12.3333H11.3333" stroke="#ADCFA7" stroke-width="1.33333" stroke-linecap="round" stroke-linejoin="round"/>
</svg>
